<svg width="145" height="169" viewBox="0 0 145 169" fill="none" xmlns="http://www.w3.org/2000/svg">
<path d="M139.426 100.35H135.086V124.96C135.086 124.96 135.086 135.24 135.086 138.36C133.956 133.31 129.936 129.71 126.046 129.59C122.486 129.46 118.606 132.17 116.736 136.51C115.296 139.85 113.426 143 110.816 145.54C102.506 153.68 82.836 165.76 50.566 145.17C49.576 144.54 48.976 143.45 48.976 142.28V100.35H44.6361C41.4161 100.35 39.6861 96.57 41.7961 94.14L68.786 63.03L69.596 62.09L89.196 39.48C90.696 37.76 93.376 37.76 94.876 39.48L102.556 48.33V48.34L103.266 49.15L118.166 66.34V53.22C118.166 49.67 121.066 46.58 124.626 46.71C126.256 46.77 127.726 47.46 128.806 48.53C129.936 49.66 130.626 51.21 130.626 52.94V80.71L142.276 94.15C144.376 96.57 142.656 100.35 139.426 100.35Z" fill="#4000FF"/>
<path d="M49.776 45.42C49.776 45.42 4.71607 72.13 1.64607 99.03C-1.97393 130.75 9.02606 150.6 49.7261 163.47C83.1061 174.02 129.466 163.4 135.076 144.16C136.806 136.29 131.316 129.77 126.036 129.58C122.486 129.45 118.606 132.16 116.726 136.5C115.276 139.84 113.406 142.99 110.806 145.54C102.486 153.68 82.826 165.75 50.556 145.16C49.556 144.54 48.9561 143.44 48.9561 142.27V100.34H44.616C41.396 100.34 39.666 96.56 41.776 94.14L68.7661 63.03L89.1761 39.48C90.6761 37.76 93.356 37.76 94.856 39.48L103.246 49.15L118.146 66.34V53.22C118.146 49.66 121.056 46.57 124.616 46.7C126.246 46.76 127.706 47.44 128.786 48.52C129.916 49.65 130.606 51.2 130.606 52.93V80.7L142.256 94.14C144.366 96.57 142.646 100.34 139.416 100.34H135.076V124.95C135.076 124.95 135.076 135.37 135.076 138.41" stroke="black" stroke-width="2" stroke-miterlimit="10"/>
<path d="M102.546 48.34L102.516 48.24C107.306 44.36 113.486 30.82 113.486 30.82C106.146 26.7 97.326 28.01 95.976 28.24C91.646 21.6 83.806 16.34 75.886 15.82C75.886 15.82 72.316 7.42 65.006 2C65.006 2 56.756 12.83 55.656 20.92V20.93L43.686 24.03L46.846 36.2C50.016 48.4 58.726 57.71 69.586 62.1" stroke="black" stroke-width="2" stroke-miterlimit="10"/>
<path d="M113.486 30.82L98.3361 33.49L102.516 48.23" stroke="black" stroke-width="2" stroke-miterlimit="10"/>
<path d="M55.6461 20.93L70.566 16.83L65.006 2" stroke="black" stroke-width="2" stroke-miterlimit="10"/>
</svg>
