<svg width="353" height="595" viewBox="0 0 353 595" fill="none" xmlns="http://www.w3.org/2000/svg">
<g filter="url(#filter0_d_19_14)">
<g filter="url(#filter1_f_19_14)">
<path d="M292.884 198.84C264.961 163.786 221.91 140.273 170.775 140.273C146.267 140.273 123.704 145.676 103.691 155.142C49.0551 180.946 14 237.135 14 296.955C14 317.399 18.1063 338.276 26.8809 358.461C29.3447 363.993 32.1111 369.526 35.2232 374.972L67.7713 431.378C90.248 470.364 135.461 491.673 179.334 481.646C201.594 476.588 217.631 463.233 229.647 453.594C246.677 439.892 258.651 431.81 265.783 427.401L278.491 423.122L306.241 374.972C340.907 314.936 330.749 246.298 292.884 198.84ZM170.689 407.562C112.984 407.562 66.2584 360.795 66.2584 303.136C66.2584 245.477 113.027 198.71 170.689 198.71C228.35 198.71 275.119 245.477 275.119 303.136C275.119 360.795 228.394 407.562 170.689 407.562Z" fill="#4000FF" fill-opacity="0.5"/>
<path d="M216.632 530.098V530.141L199.343 560.138C186.636 582.181 154.824 582.181 142.116 560.138L118.949 520.027C156.337 534.248 189.359 535.933 216.632 530.098Z" fill="#4000FF" fill-opacity="0.5"/>
</g>
<path d="M292.884 198.84C264.961 163.786 221.91 140.273 170.775 140.273C146.267 140.273 123.704 145.676 103.691 155.142C49.0551 180.946 14 237.135 14 296.955C14 317.4 18.1063 338.276 26.8809 358.461C29.3447 363.994 32.1111 369.526 35.2232 374.972L67.7713 431.378C90.248 470.365 135.461 491.673 179.334 481.646C201.594 476.589 217.631 463.233 229.647 453.594C246.677 439.893 258.651 431.81 265.783 427.401L278.491 423.122L306.241 374.972C340.907 314.936 330.749 246.298 292.884 198.84ZM170.689 407.562C112.984 407.562 66.2584 360.795 66.2584 303.136C66.2584 245.477 113.027 198.71 170.689 198.71C228.35 198.71 275.119 245.477 275.119 303.136C275.119 360.795 228.393 407.562 170.689 407.562Z" fill="#0062FF" fill-opacity="0.5"/>
<path d="M292.884 198.84C264.961 163.786 221.91 140.273 170.775 140.273C146.267 140.273 123.704 145.676 103.691 155.142C49.0551 180.946 14 237.135 14 296.955C14 317.4 18.1063 338.276 26.8809 358.461C29.3447 363.994 32.1111 369.526 35.2232 374.972L67.7713 431.378C90.248 470.365 135.461 491.673 179.334 481.646C201.594 476.589 217.631 463.233 229.647 453.594C246.677 439.893 258.651 431.81 265.783 427.401L278.491 423.122L306.241 374.972C340.907 314.936 330.749 246.298 292.884 198.84ZM170.689 407.562C112.984 407.562 66.2584 360.795 66.2584 303.136C66.2584 245.477 113.027 198.71 170.689 198.71C228.35 198.71 275.119 245.477 275.119 303.136C275.119 360.795 228.393 407.562 170.689 407.562Z" fill="url(#paint0_linear_19_14)"/>
<path d="M216.632 530.098V530.142L199.343 560.138C186.636 582.182 154.824 582.182 142.116 560.138L118.949 520.027C156.337 534.248 189.359 535.933 216.632 530.098Z" fill="#0062FF" fill-opacity="0.5"/>
<path d="M216.632 530.098V530.142L199.343 560.138C186.636 582.182 154.824 582.182 142.116 560.138L118.949 520.027C156.337 534.248 189.359 535.933 216.632 530.098Z" fill="url(#paint1_linear_19_14)"/>
<path d="M338.616 169.621L299.195 194.993C297.077 196.333 294.959 197.586 292.884 198.84C264.961 163.786 221.91 140.273 170.775 140.273C146.267 140.273 123.704 145.676 103.691 155.142C103.042 154.191 102.394 153.24 101.789 152.289L76.3728 112.87L115.145 87.9305L115.188 87.8872C109.656 57.9771 126.254 10 126.254 10C158.456 20.676 180.89 46.2638 180.89 46.2638C209.548 38.8727 243.479 48.3385 266.561 66.7946C271.056 64.4173 300.838 49.4623 331.57 55.4702C331.57 55.4702 325.476 110.709 313.027 129.986L338.616 169.621Z" fill="white"/>
<path d="M216.637 530.098C189.362 535.933 156.338 534.248 118.949 520.027C-4.1974 473.174 26.881 358.461 26.881 358.461C29.3448 363.993 32.1112 369.526 35.2233 374.972L67.7714 431.378C90.2481 470.364 135.461 491.673 179.334 481.646C201.594 476.589 217.631 463.233 229.647 453.594C246.678 439.892 258.651 431.81 265.783 427.401C275.163 421.566 287.957 424.159 293.533 433.668C293.576 433.798 293.663 433.841 293.706 433.928C311.039 464.054 279.139 516.742 216.637 530.098Z" fill="white"/>
</g>
<defs>
<filter id="filter0_d_19_14" x="0" y="0" width="352.616" height="594.671" filterUnits="userSpaceOnUse" color-interpolation-filters="sRGB">
<feFlood flood-opacity="0" result="BackgroundImageFix"/>
<feColorMatrix in="SourceAlpha" type="matrix" values="0 0 0 0 0 0 0 0 0 0 0 0 0 0 0 0 0 0 127 0" result="hardAlpha"/>
<feOffset dy="4"/>
<feGaussianBlur stdDeviation="7"/>
<feComposite in2="hardAlpha" operator="out"/>
<feColorMatrix type="matrix" values="0 0 0 0 0 0 0 0 0 0 0 0 0 0 0 0 0 0 0.25 0"/>
<feBlend mode="normal" in2="BackgroundImageFix" result="effect1_dropShadow_19_14"/>
<feBlend mode="normal" in="SourceGraphic" in2="effect1_dropShadow_19_14" result="shape"/>
</filter>
<filter id="filter1_f_19_14" x="4" y="130.273" width="333.467" height="456.398" filterUnits="userSpaceOnUse" color-interpolation-filters="sRGB">
<feFlood flood-opacity="0" result="BackgroundImageFix"/>
<feBlend mode="normal" in="SourceGraphic" in2="BackgroundImageFix" result="shape"/>
<feGaussianBlur stdDeviation="5" result="effect1_foregroundBlur_19_14"/>
</filter>
<linearGradient id="paint0_linear_19_14" x1="265.339" y1="284.314" x2="6.06505" y2="355.984" gradientUnits="userSpaceOnUse">
<stop stop-color="#6FA8FF"/>
<stop offset="1" stop-color="#4000FF"/>
</linearGradient>
<linearGradient id="paint1_linear_19_14" x1="197.272" y1="543.756" x2="128.976" y2="579.468" gradientUnits="userSpaceOnUse">
<stop stop-color="#6FA8FF"/>
<stop offset="1" stop-color="#4000FF"/>
</linearGradient>
</defs>
</svg>
