<svg width="78" height="135" viewBox="0 0 78 135" fill="none" xmlns="http://www.w3.org/2000/svg">
<path d="M65.52 45.7C59.05 37.59 49.1 32.14 37.27 32.14C31.6 32.14 26.38 33.39 21.75 35.58C9.11 41.56 1 54.56 1 68.4C1 73.13 1.95 77.96 3.98 82.63C4.55 83.91 5.19 85.19 5.91 86.45L13.44 99.5C18.64 108.52 29.1 113.45 39.25 111.13C44.4 109.96 48.11 106.87 50.89 104.64C54.83 101.47 57.6 99.6 59.25 98.58L62.19 97.59L68.61 86.45C76.63 72.56 74.28 56.68 65.52 45.7ZM37.25 93.99C23.9 93.99 13.09 83.17 13.09 69.83C13.09 56.49 23.91 45.67 37.25 45.67C50.59 45.67 61.41 56.49 61.41 69.83C61.41 83.17 50.6 93.99 37.25 93.99Z" fill="#4000FF"/>
<path d="M47.88 122.34V122.35L43.88 129.29C40.94 134.39 33.58 134.39 30.64 129.29L25.28 120.01C33.93 123.3 41.57 123.69 47.88 122.34Z" fill="#4000FF"/>
<path d="M37.25 93.98C50.5932 93.98 61.41 83.1632 61.41 69.82C61.41 56.4768 50.5932 45.66 37.25 45.66C23.9068 45.66 13.09 56.4768 13.09 69.82C13.09 83.1632 23.9068 93.98 37.25 93.98Z" stroke="black" stroke-width="2" stroke-miterlimit="10" stroke-linecap="round"/>
<path d="M47.88 122.34V122.35L43.88 129.29C40.94 134.39 33.58 134.39 30.64 129.29L25.28 120.01C33.93 123.3 41.57 123.69 47.88 122.34Z" stroke="black" stroke-width="2" stroke-miterlimit="10" stroke-linecap="round"/>
<path d="M47.89 122.35C47.88 122.34 47.88 122.35 47.88 122.35" stroke="black" stroke-width="2" stroke-miterlimit="10" stroke-linecap="round"/>
<path d="M76.1 38.94L66.98 44.81C66.49 45.12 66 45.41 65.52 45.7C59.05 37.59 49.1 32.14 37.27 32.14C31.6 32.14 26.38 33.39 21.75 35.58C21.6 35.36 21.45 35.14 21.31 34.92L15.43 25.8L24.4 20.03L24.41 20.02C23.13 13.1 26.97 2 26.97 2C34.42 4.47 39.61 10.39 39.61 10.39C46.24 8.68 54.09 10.87 59.43 15.14C60.47 14.59 67.36 11.13 74.47 12.52C74.47 12.52 73.06 25.3 70.18 29.76L76.1 38.94Z" stroke="black" stroke-width="2" stroke-miterlimit="10"/>
<path d="M47.88 122.34C41.57 123.69 33.93 123.3 25.28 120.01C-3.21 109.17 3.98 82.63 3.98 82.63C4.55 83.91 5.19 85.19 5.91 86.45L13.44 99.5C18.64 108.52 29.1 113.45 39.25 111.13C44.4 109.96 48.11 106.87 50.89 104.64C54.83 101.47 57.6 99.6 59.25 98.58C61.42 97.23 64.38 97.83 65.67 100.03C65.68 100.06 65.7 100.07 65.71 100.09C69.72 107.06 62.34 119.26 47.88 122.34Z" stroke="black" stroke-width="2" stroke-miterlimit="10"/>
<path d="M3.98 82.63C1.95 77.95 1 73.12 1 68.4C1 54.56 9.11 41.56 21.75 35.59" stroke="black" stroke-width="2" stroke-miterlimit="10"/>
<path d="M65.52 45.7C74.28 56.68 76.63 72.56 68.62 86.45L62.2 97.59" stroke="black" stroke-width="2" stroke-miterlimit="10"/>
<path d="M37.25 93.98C50.5932 93.98 61.41 83.1632 61.41 69.82C61.41 56.4768 50.5932 45.66 37.25 45.66C23.9068 45.66 13.09 56.4768 13.09 69.82C13.09 83.1632 23.9068 93.98 37.25 93.98Z" stroke="black" stroke-width="2" stroke-miterlimit="10" stroke-linecap="round"/>
<path d="M47.89 122.35C47.88 122.34 47.88 122.35 47.88 122.35" stroke="black" stroke-width="2" stroke-miterlimit="10" stroke-linecap="round"/>
<path d="M47.88 122.34C41.57 123.69 33.93 123.3 25.28 120.01" stroke="black" stroke-width="2" stroke-miterlimit="10"/>
</svg>
